ffmpeg version 6.1.1-3ubuntu5 Copyright (c) 2000-2023 the FFmpeg developers
  built with gcc 13 (Ubuntu 13.2.0-23ubuntu3)
  configuration: --prefix=/usr --extra-version=3ubuntu5 --toolchain=hardened --libdir=/usr/lib/x86_64-linux-gnu --incdir=/usr/include/x86_64-linux-gnu --arch=amd64 --enable-gpl --disable-stripping --disable-omx --enable-gnutls --enable-libaom --enable-libass --enable-libbs2b --enable-libcaca --enable-libcdio --enable-libcodec2 --enable-libdav1d --enable-libflite --enable-libfontconfig --enable-libfreetype --enable-libfribidi --enable-libglslang --enable-libgme --enable-libgsm --enable-libharfbuzz --enable-libmp3lame --enable-libmysofa --enable-libopenjpeg --enable-libopenmpt --enable-libopus --enable-librubberband --enable-libshine --enable-libsnappy --enable-libsoxr --enable-libspeex --enable-libtheora --enable-libtwolame --enable-libvidstab --enable-libvorbis --enable-libvpx --enable-libwebp --enable-libx265 --enable-libxml2 --enable-libxvid --enable-libzimg --enable-openal --enable-opencl --enable-opengl --disable-sndio --enable-libvpl --disable-libmfx --enable-libdc1394 --enable-libdrm --enable-libiec61883 --enable-chromaprint --enable-frei0r --enable-ladspa --enable-libbluray --enable-libjack --enable-libpulse --enable-librabbitmq --enable-librist --enable-libsrt --enable-libssh --enable-libsvtav1 --enable-libx264 --enable-libzmq --enable-libzvbi --enable-lv2 --enable-sdl2 --enable-libplacebo --enable-librav1e --enable-pocketsphinx --enable-librsvg --enable-libjxl --enable-shared
  libavutil      58. 29.100 / 58. 29.100
  libavcodec     60. 31.102 / 60. 31.102
  libavformat    60. 16.100 / 60. 16.100
  libavdevice    60.  3.100 / 60.  3.100
  libavfilter     9. 12.100 /  9. 12.100
  libswscale      7.  5.100 /  7.  5.100
  libswresample   4. 12.100 /  4. 12.100
  libpostproc    57.  3.100 / 57.  3.100
[x11grab @ 0x55f975bdb480] Stream #0: not enough frames to estimate rate; consider increasing probesize
Input #0, x11grab, from ':1':
  Duration: N/A, start: 1781043371.784170, bitrate: 442368 kb/s
  Stream #0:0: Video: rawvideo (BGR[0] / 0x524742), bgr0, 1280x720, 442368 kb/s, 15 fps, 1000k tbr, 1000k tbn
Stream mapping:
  Stream #0:0 -> #0:0 (rawvideo (native) -> h264 (libx264))
Press [q] to stop, [?] for help
[libx264 @ 0x55f975be4280] using cpu capabilities: MMX2 SSE2Fast SSSE3 SSE4.2 AVX FMA3 BMI2 AVX2 AVX512
[libx264 @ 0x55f975be4280] profile Constrained Baseline, level 3.1, 4:2:0, 8-bit
[libx264 @ 0x55f975be4280] 264 - core 164 r3108 31e19f9 - H.264/MPEG-4 AVC codec - Copyleft 2003-2023 - http://www.videolan.org/x264.html - options: cabac=0 ref=1 deblock=0:0:0 analyse=0:0 me=dia subme=0 psy=1 psy_rd=1.00:0.00 mixed_ref=0 me_range=16 chroma_me=1 trellis=0 8x8dct=0 cqm=0 deadzone=21,11 fast_pskip=1 chroma_qp_offset=0 threads=6 lookahead_threads=1 sliced_threads=0 nr=0 decimate=1 interlaced=0 bluray_compat=0 constrained_intra=0 bframes=0 weightp=0 keyint=250 keyint_min=15 scenecut=0 intra_refresh=0 rc=crf mbtree=0 crf=23.0 qcomp=0.60 qpmin=0 qpmax=69 qpstep=4 ip_ratio=1.40 aq=0
Output #0, mp4, to '/workspace/challenges/ultimatum-game/attempts/2026-06-09-21-32/evidence/participant.mp4':
  Metadata:
    encoder         : Lavf60.16.100
  Stream #0:0: Video: h264 (avc1 / 0x31637661), yuv420p(tv, progressive), 1280x720, q=2-31, 15 fps, 15360 tbn
    Metadata:
      encoder         : Lavc60.31.102 libx264
    Side data:
      cpb: bitrate max/min/avg: 0/0/0 buffer size: 0 vbv_delay: N/A
frame=    0 fps=0.0 q=0.0 size=       0kB time=N/A bitrate=N/A speed=N/A    frame=    3 fps=0.0 q=11.0 size=       0kB time=00:00:00.20 bitrate=   1.9kbits/s speed=0.375x    frame=   11 fps= 10 q=11.0 size=       0kB time=00:00:00.73 bitrate=   0.5kbits/s speed=0.688x    frame=   19 fps= 12 q=11.0 size=       0kB time=00:00:01.26 bitrate=   0.3kbits/s speed=0.792x    frame=   27 fps= 13 q=11.0 size=       0kB time=00:00:01.80 bitrate=   0.2kbits/s speed=0.844x    frame=   35 fps= 13 q=12.0 size=       0kB time=00:00:02.33 bitrate=   0.2kbits/s speed=0.876x    frame=   43 fps= 13 q=19.0 size=       0kB time=00:00:02.86 bitrate=   0.1kbits/s speed=0.896x    frame=   51 fps= 14 q=22.0 size=     256kB time=00:00:03.40 bitrate= 616.9kbits/s speed=0.911x    frame=   59 fps= 14 q=14.0 size=     256kB time=00:00:03.93 bitrate= 533.3kbits/s speed=0.922x    frame=   67 fps= 14 q=16.0 size=     512kB time=00:00:04.46 bitrate= 939.1kbits/s speed=0.931x    frame=   75 fps= 14 q=15.0 size=     768kB time=00:00:05.00 bitrate=1258.4kbits/s speed=0.938x    frame=   83 fps= 14 q=15.0 size=    1024kB time=00:00:05.53 bitrate=1516.1kbits/s speed=0.943x    frame=   91 fps= 14 q=19.0 size=    1024kB time=00:00:06.06 bitrate=1382.8kbits/s speed=0.948x    frame=   99 fps= 14 q=15.0 size=    1280kB time=00:00:06.60 bitrate=1588.8kbits/s speed=0.952x    frame=  107 fps= 14 q=14.0 size=    1280kB time=00:00:07.13 bitrate=1470.0kbits/s speed=0.956x    frame=  115 fps= 14 q=11.0 size=    1536kB time=00:00:07.66 bitrate=1641.3kbits/s speed=0.958x    frame=  123 fps= 14 q=11.0 size=    1536kB time=00:00:08.20 bitrate=1534.5kbits/s speed=0.961x    frame=  131 fps= 14 q=11.0 size=    1536kB time=00:00:08.73 bitrate=1440.8kbits/s speed=0.963x    frame=  139 fps= 14 q=11.0 size=    1536kB time=00:00:09.26 bitrate=1357.9kbits/s speed=0.965x    frame=  147 fps= 15 q=11.0 size=    1536kB time=00:00:09.80 bitrate=1284.0kbits/s speed=0.967x    frame=  155 fps= 15 q=11.0 size=    1536kB time=00:00:10.33 bitrate=1217.7kbits/s speed=0.969x    frame=  163 fps= 15 q=11.0 size=    1536kB time=00:00:10.86 bitrate=1158.0kbits/s speed=0.97x    frame=  171 fps= 15 q=11.0 size=    1536kB time=00:00:11.40 bitrate=1103.8kbits/s speed=0.972x    frame=  179 fps= 15 q=11.0 size=    1536kB time=00:00:11.93 bitrate=1054.5kbits/s speed=0.973x    frame=  188 fps= 15 q=11.0 size=    1536kB time=00:00:12.46 bitrate=1009.4kbits/s speed=0.974x    frame=  195 fps= 15 q=11.0 size=    1536kB time=00:00:13.00 bitrate= 967.9kbits/s speed=0.975x    frame=  203 fps= 15 q=11.0 size=    1536kB time=00:00:13.53 bitrate= 929.8kbits/s speed=0.976x    frame=  211 fps= 15 q=11.0 size=    1536kB time=00:00:14.06 bitrate= 894.5kbits/s speed=0.977x    frame=  219 fps= 15 q=11.0 size=    1536kB time=00:00:14.60 bitrate= 861.9kbits/s speed=0.978x    frame=  227 fps= 15 q=13.0 size=    1536kB time=00:00:15.13 bitrate= 831.5kbits/s speed=0.978x    frame=  235 fps= 15 q=11.0 size=    1536kB time=00:00:15.66 bitrate= 803.2kbits/s speed=0.979x    frame=  243 fps= 15 q=11.0 size=    1792kB time=00:00:16.20 bitrate= 906.2kbits/s speed=0.98x    frame=  251 fps= 15 q=12.0 size=    1792kB time=00:00:16.73 bitrate= 877.3kbits/s speed=0.981x    frame=  259 fps= 15 q=11.0 size=    1792kB time=00:00:17.26 bitrate= 850.2kbits/s speed=0.981x    frame=  267 fps= 15 q=11.0 size=    1792kB time=00:00:17.80 bitrate= 824.7kbits/s speed=0.982x    frame=  275 fps= 15 q=18.0 size=    1792kB time=00:00:18.33 bitrate= 800.8kbits/s speed=0.982x    frame=  283 fps= 15 q=21.0 size=    2048kB time=00:00:18.86 bitrate= 889.3kbits/s speed=0.982x    frame=  291 fps= 15 q=12.0 size=    2048kB time=00:00:19.40 bitrate= 864.8kbits/s speed=0.983x    frame=  299 fps= 15 q=11.0 size=    2048kB time=00:00:19.93 bitrate= 841.7kbits/s speed=0.984x    frame=  307 fps= 15 q=18.0 size=    2048kB time=00:00:20.46 bitrate= 819.8kbits/s speed=0.984x    frame=  315 fps= 15 q=15.0 size=    2304kB time=00:00:21.00 bitrate= 898.8kbits/s speed=0.984x    frame=  323 fps= 15 q=12.0 size=    2304kB time=00:00:21.53 bitrate= 876.5kbits/s speed=0.985x    frame=  331 fps= 15 q=13.0 size=    2304kB time=00:00:22.06 bitrate= 855.4kbits/s speed=0.985x    frame=  339 fps= 15 q=11.0 size=    2560kB time=00:00:22.60 bitrate= 928.0kbits/s speed=0.985x    frame=  347 fps= 15 q=11.0 size=    2560kB time=00:00:23.13 bitrate= 906.6kbits/s speed=0.986x    frame=  355 fps= 15 q=11.0 size=    2560kB time=00:00:23.66 bitrate= 886.1kbits/s speed=0.986x    frame=  363 fps= 15 q=11.0 size=    2560kB time=00:00:24.20 bitrate= 866.6kbits/s speed=0.986x    frame=  371 fps= 15 q=11.0 size=    2560kB time=00:00:24.73 bitrate= 847.9kbits/s speed=0.987x    frame=  379 fps= 15 q=16.0 size=    2560kB time=00:00:25.26 bitrate= 830.0kbits/s speed=0.987x    frame=  387 fps= 15 q=21.0 size=    2560kB time=00:00:25.80 bitrate= 812.9kbits/s speed=0.987x    frame=  395 fps= 15 q=11.0 size=    2816kB time=00:00:26.33 bitrate= 876.0kbits/s speed=0.988x    frame=  403 fps= 15 q=13.0 size=    2816kB time=00:00:26.86 bitrate= 858.6kbits/s speed=0.988x    frame=  411 fps= 15 q=16.0 size=    2816kB time=00:00:27.40 bitrate= 841.9kbits/s speed=0.988x    frame=  419 fps= 15 q=21.0 size=    2816kB time=00:00:27.93 bitrate= 825.9kbits/s speed=0.988x    frame=  427 fps= 15 q=11.0 size=    3072kB time=00:00:28.46 bitrate= 884.1kbits/s speed=0.988x    frame=  435 fps= 15 q=12.0 size=    3072kB time=00:00:29.00 bitrate= 867.8kbits/s speed=0.989x    frame=  443 fps= 15 q=11.0 size=    3072kB time=00:00:29.53 bitrate= 852.1kbits/s speed=0.989x    frame=  451 fps= 15 q=11.0 size=    3072kB time=00:00:30.06 bitrate= 837.0kbits/s speed=0.989x    frame=  459 fps= 15 q=11.0 size=    3072kB time=00:00:30.60 bitrate= 822.4kbits/s speed=0.989x    frame=  467 fps= 15 q=11.0 size=    3072kB time=00:00:31.13 bitrate= 808.3kbits/s speed=0.989x    frame=  475 fps= 15 q=11.0 size=    3072kB time=00:00:31.66 bitrate= 794.7kbits/s speed=0.99x    frame=  483 fps= 15 q=16.0 size=    3072kB time=00:00:32.20 bitrate= 781.6kbits/s speed=0.99x    frame=  491 fps= 15 q=23.0 size=    3328kB time=00:00:32.73 bitrate= 832.9kbits/s speed=0.99x    frame=  499 fps= 15 q=15.0 size=    3328kB time=00:00:33.26 bitrate= 819.5kbits/s speed=0.99x    frame=  507 fps= 15 q=12.0 size=    3584kB time=00:00:33.80 bitrate= 868.7kbits/s speed=0.99x    frame=  515 fps= 15 q=15.0 size=    3584kB time=00:00:34.33 bitrate= 855.2kbits/s speed=0.99x    frame=  523 fps= 15 q=21.0 size=    3584kB time=00:00:34.86 bitrate= 842.1kbits/s speed=0.991x    frame=  531 fps= 15 q=22.0 size=    3840kB time=00:00:35.40 bitrate= 888.6kbits/s speed=0.991x    frame=  539 fps= 15 q=11.0 size=    3840kB time=00:00:35.93 bitrate= 875.4kbits/s speed=0.991x    frame=  547 fps= 15 q=11.0 size=    3840kB time=00:00:36.46 bitrate= 862.6kbits/s speed=0.991x    frame=  555 fps= 15 q=11.0 size=    3840kB time=00:00:37.00 bitrate= 850.2kbits/s speed=0.991x    frame=  563 fps= 15 q=11.0 size=    3840kB time=00:00:37.53 bitrate= 838.1kbits/s speed=0.991x    frame=  571 fps= 15 q=11.0 size=    3840kB time=00:00:38.06 bitrate= 826.4kbits/s speed=0.991x    frame=  579 fps= 15 q=11.0 size=    3840kB time=00:00:38.60 bitrate= 815.0kbits/s speed=0.991x    frame=  587 fps= 15 q=15.0 size=    4096kB time=00:00:39.13 bitrate= 857.4kbits/s speed=0.992x    frame=  595 fps= 15 q=18.0 size=    4096kB time=00:00:39.66 bitrate= 845.9kbits/s speed=0.992x    frame=  603 fps= 15 q=11.0 size=    4096kB time=00:00:40.20 bitrate= 834.7kbits/s speed=0.992x    frame=  611 fps= 15 q=18.0 size=    4352kB time=00:00:40.73 bitrate= 875.3kbits/s speed=0.992x    frame=  619 fps= 15 q=14.0 size=    4352kB time=00:00:41.26 bitrate= 863.9kbits/s speed=0.992x    frame=  627 fps= 15 q=13.0 size=    4352kB time=00:00:41.80 bitrate= 852.9kbits/s speed=0.992x    frame=  635 fps= 15 q=14.0 size=    4352kB time=00:00:42.33 bitrate= 842.2kbits/s speed=0.992x    frame=  643 fps= 15 q=11.0 size=    4608kB time=00:00:42.86 bitrate= 880.6kbits/s speed=0.992x    frame=  651 fps= 15 q=11.0 size=    4608kB time=00:00:43.40 bitrate= 869.8kbits/s speed=0.992x    frame=  659 fps= 15 q=11.0 size=    4608kB time=00:00:43.93 bitrate= 859.2kbits/s speed=0.992x    frame=  667 fps= 15 q=11.0 size=    4608kB time=00:00:44.46 bitrate= 848.9kbits/s speed=0.993x    frame=  675 fps= 15 q=11.0 size=    4608kB time=00:00:45.00 bitrate= 838.9kbits/s speed=0.993x    frame=  683 fps= 15 q=18.0 size=    4608kB time=00:00:45.53 bitrate= 829.0kbits/s speed=0.993x    frame=  691 fps= 15 q=14.0 size=    4864kB time=00:00:46.06 bitrate= 865.0kbits/s speed=0.993x    frame=  699 fps= 15 q=12.0 size=    4864kB time=00:00:46.60 bitrate= 855.1kbits/s speed=0.993x    frame=  707 fps= 15 q=12.0 size=    4864kB time=00:00:47.13 bitrate= 845.4kbits/s speed=0.993x    frame=  715 fps= 15 q=15.0 size=    4864kB time=00:00:47.66 bitrate= 835.9kbits/s speed=0.993x    frame=  723 fps= 15 q=21.0 size=    5120kB time=00:00:48.20 bitrate= 870.2kbits/s speed=0.993x    frame=  731 fps= 15 q=22.0 size=    5120kB time=00:00:48.73 bitrate= 860.7kbits/s speed=0.993x    frame=  739 fps= 15 q=11.0 size=    5376kB time=00:00:49.26 bitrate= 893.9kbits/s speed=0.993x    frame=  747 fps= 15 q=19.0 size=    5376kB time=00:00:49.80 bitrate= 884.3kbits/s speed=0.993x    frame=  755 fps= 15 q=11.0 size=    5376kB time=00:00:50.33 bitrate= 875.0kbits/s speed=0.993x    frame=  763 fps= 15 q=11.0 size=    5376kB time=00:00:50.86 bitrate= 865.8kbits/s speed=0.993x    frame=  771 fps= 15 q=11.0 size=    5376kB time=00:00:51.40 bitrate= 856.8kbits/s speed=0.994x    frame=  779 fps= 15 q=13.0 size=    5376kB time=00:00:51.93 bitrate= 848.0kbits/s speed=0.994x    frame=  787 fps= 15 q=14.0 size=    5376kB time=00:00:52.46 bitrate= 839.4kbits/s speed=0.994x    frame=  795 fps= 15 q=18.0 size=    5632kB time=00:00:53.00 bitrate= 870.5kbits/s speed=0.994x    frame=  803 fps= 15 q=11.0 size=    5632kB time=00:00:53.53 bitrate= 861.9kbits/s speed=0.994x    frame=  811 fps= 15 q=20.0 size=    5632kB time=00:00:54.06 bitrate= 853.3kbits/s speed=0.994x    frame=  819 fps= 15 q=14.0 size=    5888kB time=00:00:54.60 bitrate= 883.4kbits/s speed=0.994x    frame=  827 fps= 15 q=13.0 size=    5888kB time=00:00:55.13 bitrate= 874.9kbits/s speed=0.994x    frame=  835 fps= 15 q=16.0 size=    5888kB time=00:00:55.66 bitrate= 866.5kbits/s speed=0.994x    frame=  843 fps= 15 q=11.0 size=    6144kB time=00:00:56.20 bitrate= 895.6kbits/s speed=0.994x    frame=  851 fps= 15 q=11.0 size=    6144kB time=00:00:56.73 bitrate= 887.2kbits/s speed=0.994x    frame=  859 fps= 15 q=11.0 size=    6144kB time=00:00:57.26 bitrate= 878.9kbits/s speed=0.994x    frame=  867 fps= 15 q=11.0 size=    6144kB time=00:00:57.80 bitrate= 870.8kbits/s speed=0.994x    frame=  875 fps= 15 q=11.0 size=    6144kB time=00:00:58.33 bitrate= 862.8kbits/s speed=0.994x    frame=  883 fps= 15 q=19.0 size=    6144kB time=00:00:58.86 bitrate= 855.0kbits/s speed=0.994x    frame=  891 fps= 15 q=14.0 size=    6144kB time=00:00:59.40 bitrate= 847.3kbits/s speed=0.994x    frame=  899 fps= 15 q=12.0 size=    6144kB time=00:00:59.93 bitrate= 839.8kbits/s speed=0.994x    frame=  907 fps= 15 q=12.0 size=    6400kB time=00:01:00.46 bitrate= 867.1kbits/s speed=0.995x    frame=  915 fps= 15 q=15.0 size=    6400kB time=00:01:01.00 bitrate= 859.5kbits/s speed=0.995x    frame=  923 fps= 15 q=21.0 size=    6400kB time=00:01:01.53 bitrate= 852.0kbits/s speed=0.995x    frame=  931 fps= 15 q=22.0 size=    6656kB time=00:01:02.06 bitrate= 878.5kbits/s speed=0.995x    frame=  939 fps= 15 q=11.0 size=    6656kB time=00:01:02.60 bitrate= 871.0kbits/s speed=0.995x    frame=  947 fps= 15 q=11.0 size=    6656kB time=00:01:03.13 bitrate= 863.7kbits/s speed=0.995x    frame=  955 fps= 15 q=11.0 size=    6656kB time=00:01:03.66 bitrate= 856.4kbits/s speed=0.995x    frame=  963 fps= 15 q=11.0 size=    6656kB time=00:01:04.20 bitrate= 849.3kbits/s speed=0.995x    frame=  971 fps= 15 q=11.0 size=    6656kB time=00:01:04.73 bitrate= 842.3kbits/s speed=0.995x    frame=  979 fps= 15 q=11.0 size=    6656kB time=00:01:05.26 bitrate= 835.4kbits/s speed=0.995x    frame=  987 fps= 15 q=15.0 size=    6912kB time=00:01:05.80 bitrate= 860.5kbits/s speed=0.995x    frame=  995 fps= 15 q=11.0 size=    6912kB time=00:01:06.33 bitrate= 853.6kbits/s speed=0.995x    frame= 1003 fps= 15 q=11.0 size=    7168kB time=00:01:06.86 bitrate= 878.2kbits/s speed=0.995x    frame= 1011 fps= 15 q=20.0 size=    7168kB time=00:01:07.40 bitrate= 871.2kbits/s speed=0.995x    frame= 1019 fps= 15 q=14.0 size=    7168kB time=00:01:07.93 bitrate= 864.4kbits/s speed=0.995x    frame= 1027 fps= 15 q=15.0 size=    7168kB time=00:01:08.46 bitrate= 857.7kbits/s speed=0.995x    frame= 1035 fps= 15 q=18.0 size=    7424kB time=00:01:09.00 bitrate= 881.4kbits/s speed=0.995x    frame= 1043 fps= 15 q=11.0 size=    7424kB time=00:01:09.53 bitrate= 874.7kbits/s speed=0.995x    frame= 1051 fps= 15 q=11.0 size=    7424kB time=00:01:10.06 bitrate= 868.0kbits/s speed=0.995x    frame= 1059 fps= 15 q=11.0 size=    7424kB time=00:01:10.60 bitrate= 861.4kbits/s speed=0.995x    frame= 1067 fps= 15 q=11.0 size=    7424kB time=00:01:11.13 bitrate= 855.0kbits/s speed=0.995x    frame= 1075 fps= 15 q=11.0 size=    7424kB time=00:01:11.66 bitrate= 848.6kbits/s speed=0.995x    frame= 1083 fps= 15 q=20.0 size=    7424kB time=00:01:12.20 bitrate= 842.4kbits/s speed=0.995x    frame= 1091 fps= 15 q=14.0 size=    7680kB time=00:01:12.73 bitrate= 865.0kbits/s speed=0.995x    frame= 1099 fps= 15 q=14.0 size=    7680kB time=00:01:13.26 bitrate= 858.7kbits/s speed=0.995x    frame= 1107 fps= 15 q=13.0 size=    7680kB time=00:01:13.80 bitrate= 852.5kbits/s speed=0.996x    frame= 1115 fps= 15 q=16.0 size=    7680kB time=00:01:14.33 bitrate= 846.4kbits/s speed=0.996x    frame= 1123 fps= 15 q=17.0 size=    7936kB time=00:01:14.86 bitrate= 868.4kbits/s speed=0.996x    frame= 1131 fps= 15 q=12.0 size=    7936kB time=00:01:15.40 bitrate= 862.2kbits/s speed=0.996x    frame= 1139 fps= 15 q=13.0 size=    7936kB time=00:01:15.93 bitrate= 856.2kbits/s speed=0.996x    frame= 1147 fps= 15 q=11.0 size=    8192kB time=00:01:16.46 bitrate= 877.6kbits/s speed=0.996x    frame= 1155 fps= 15 q=11.0 size=    8192kB time=00:01:17.00 bitrate= 871.5kbits/s speed=0.996x    frame= 1163 fps= 15 q=11.0 size=    8192kB time=00:01:17.53 bitrate= 865.6kbits/s speed=0.996x    frame= 1171 fps= 15 q=11.0 size=    8192kB time=00:01:18.06 bitrate= 859.6kbits/s speed=0.996x    frame= 1179 fps= 15 q=11.0 size=    8192kB time=00:01:18.60 bitrate= 853.8kbits/s speed=0.996x    frame= 1187 fps= 15 q=17.0 size=    8192kB time=00:01:19.13 bitrate= 848.1kbits/s speed=0.996x    frame= 1195 fps= 15 q=15.0 size=    8192kB time=00:01:19.66 bitrate= 842.4kbits/s speed=0.996x    frame= 1204 fps= 15 q=11.0 size=    8448kB time=00:01:20.20 bitrate= 862.9kbits/s speed=0.996x    frame= 1211 fps= 15 q=13.0 size=    8448kB time=00:01:20.73 bitrate= 857.2kbits/s speed=0.996x    frame= 1219 fps= 15 q=15.0 size=    8448kB time=00:01:21.26 bitrate= 851.6kbits/s speed=0.996x    frame= 1227 fps= 15 q=18.0 size=    8704kB time=00:01:21.80 bitrate= 871.7kbits/s speed=0.996x    frame= 1235 fps= 15 q=18.0 size=    8704kB time=00:01:22.33 bitrate= 866.0kbits/s speed=0.996x    frame= 1243 fps= 15 q=11.0 size=    8704kB time=00:01:22.86 bitrate= 860.5kbits/s speed=0.996x    frame= 1251 fps= 15 q=12.0 size=    8960kB time=00:01:23.40 bitrate= 880.1kbits/s speed=0.996x    frame= 1259 fps= 15 q=11.0 size=    8960kB time=00:01:23.93 bitrate= 874.5kbits/s speed=0.996x    frame= 1267 fps= 15 q=11.0 size=    8960kB time=00:01:24.46 bitrate= 869.0kbits/s speed=0.996x    frame= 1275 fps= 15 q=11.0 size=    8960kB time=00:01:25.00 bitrate= 863.5kbits/s speed=0.996x    frame= 1283 fps= 15 q=22.0 size=    8960kB time=00:01:25.53 bitrate= 858.2kbits/s speed=0.996x    frame= 1291 fps= 15 q=14.0 size=    8960kB time=00:01:26.06 bitrate= 852.8kbits/s speed=0.996x    frame= 1299 fps= 15 q=16.0 size=    9216kB time=00:01:26.60 bitrate= 871.8kbits/s speed=0.996x    frame= 1307 fps= 15 q=13.0 size=    9216kB time=00:01:27.13 bitrate= 866.5kbits/s speed=0.996x    frame= 1315 fps= 15 q=16.0 size=    9216kB time=00:01:27.66 bitrate= 861.2kbits/s speed=0.996x    frame= 1323 fps= 15 q=11.0 size=    9472kB time=00:01:28.20 bitrate= 879.8kbits/s speed=0.996x    frame= 1331 fps= 15 q=11.0 size=    9472kB time=00:01:28.73 bitrate= 874.5kbits/s speed=0.996x    [out#0/mp4 @ 0x55f975be2a80] video:9608kB audio:0kB subtitle:0kB other streams:0kB global headers:0kB muxing overhead: 0.064714%
frame= 1342 fps= 15 q=-1.0 Lsize=    9614kB time=00:01:29.40 bitrate= 881.0kbits/s speed=   1x    
[libx264 @ 0x55f975be4280] frame I:6     Avg QP:12.33  size:138969
[libx264 @ 0x55f975be4280] frame P:1336  Avg QP:13.68  size:  6740
[libx264 @ 0x55f975be4280] mb I  I16..4: 100.0%  0.0%  0.0%
[libx264 @ 0x55f975be4280] mb P  I16..4:  9.4%  0.0%  0.0%  P16..4: 11.1%  0.0%  0.0%  0.0%  0.0%    skip:79.5%
[libx264 @ 0x55f975be4280] coded y,uvDC,uvAC intra: 8.1% 37.9% 10.6% inter: 2.9% 9.1% 3.1%
[libx264 @ 0x55f975be4280] i16 v,h,dc,p: 87% 12%  1%  0%
[libx264 @ 0x55f975be4280] i8c dc,h,v,p: 54% 12% 18% 16%
[libx264 @ 0x55f975be4280] kb/s:879.71
Exiting normally, received signal 2.
